<?xml version="1.0" encoding="UTF-8"?>
<svg id="SVGDoc" width="26" height="24" xmlns="http://www.w3.org/2000/svg" version="1.1" xmlns:xlink="http://www.w3.org/1999/xlink" xmlns:avocode="https://avocode.com/" viewBox="0 0 26 24"><defs></defs><desc>Generated with Avocode.</desc><g><g><title>sent-mail</title><path d="M25.79975,0.09618c-0.11542,-0.10125 -0.2797,-0.12474 -0.41892,-0.06016l-25.15634,11.68835c-0.13543,0.06295 -0.22265,0.19808 -0.22428,0.34738c-0.00163,0.14932 0.08272,0.2863 0.21683,0.35211l7.1192,3.49383c0.13055,0.06411 0.28622,0.04961 0.40281,-0.03752l6.92183,-5.17345v0l-5.43392,5.58944c-0.07752,0.07977 -0.11706,0.189 -0.10853,0.29986l0.54104,7.04602c0.01202,0.15614 0.11667,0.28963 0.26544,0.33855c0.03977,0.01301 0.08063,0.01938 0.12101,0.01938c0.11078,0 0.21854,-0.04753 0.2935,-0.13435l3.77864,-4.37867v0l4.67117,2.2319c0.1014,0.04845 0.21877,0.05047 0.3218,0.00566c0.10303,-0.04489 0.18148,-0.13218 0.21513,-0.23932l6.58778,-20.98148c0.04605,-0.14652 0.00116,-0.30629 -0.1142,-0.40754z" fill="#efefef" fill-opacity="1"></path></g></g></svg>